<svg width="383" height="93" viewBox="0 0 383 93" fill="none" xmlns="http://www.w3.org/2000/svg">
<g clip-path="url(#clip0_46_49)">
<path d="M0 39.8571C0 21.0683 0 11.6739 5.17745 5.83695C10.3549 0 18.6879 0 35.3538 0H347.646C364.313 0 372.646 0 377.822 5.83695C383 11.6739 383 21.0683 383 39.8571V53.1429C383 71.9317 383 81.3262 377.822 87.1631C372.646 93 364.313 93 347.646 93H35.3538C18.6879 93 10.3549 93 5.17745 87.1631C0 81.3262 0 71.9317 0 53.1429V39.8571Z" fill="black"/>
<path d="M100.169 46.5C100.169 35.4938 92.255 26.5714 82.4923 26.5714C72.7296 26.5714 64.8154 35.4938 64.8154 46.5C64.8154 57.5062 72.7296 66.4286 82.4923 66.4286C92.255 66.4286 100.169 57.5062 100.169 46.5Z" fill="#FC3F1D"/>
<path d="M84.9836 58.4771H88.6766V34.5628H83.3048C77.9026 34.5628 75.0642 37.6941 75.0642 42.3049C75.0642 45.9867 76.6208 48.1544 79.3981 50.3909L74.5758 58.4771H78.5741L83.9458 49.4275L82.084 48.0167C79.8254 46.2962 78.7267 44.9544 78.7267 42.0639C78.7267 39.5177 80.3138 37.7972 83.3353 37.7972H84.9836V58.4771Z" fill="white"/>
<path d="M119.903 35.7519H125.654C127.665 35.7519 129.197 36.1061 130.25 36.8147C131.302 37.5233 131.829 38.7191 131.829 40.4019C131.829 41.0927 131.742 41.6951 131.569 42.2087C131.397 42.7048 131.145 43.1387 130.815 43.5107C130.501 43.865 130.116 44.1572 129.66 44.3876C129.205 44.6179 128.702 44.7949 128.152 44.919C129.566 45.1138 130.635 45.5479 131.357 46.221C132.08 46.8941 132.442 47.9216 132.442 49.3033C132.442 50.2952 132.269 51.1455 131.923 51.8541C131.577 52.545 131.098 53.1118 130.485 53.5547C129.872 53.9799 129.15 54.2987 128.317 54.5113C127.484 54.7061 126.581 54.8036 125.606 54.8036H119.903V35.7519ZM122.755 38.5419V43.617H125.795C126.738 43.617 127.5 43.3956 128.081 42.9527C128.663 42.4922 128.953 41.7748 128.953 40.8004C128.953 39.9148 128.686 39.3212 128.152 39.0201C127.633 38.7013 126.895 38.5419 125.936 38.5419H122.755ZM122.755 46.3804V52.0401H125.889C126.424 52.0401 126.911 51.9958 127.351 51.9073C127.791 51.801 128.168 51.6416 128.482 51.429C128.796 51.1987 129.04 50.9064 129.213 50.5521C129.385 50.1801 129.472 49.7284 129.472 49.197C129.472 48.1519 129.165 47.4255 128.553 47.0181C127.956 46.593 126.989 46.3804 125.654 46.3804H122.755Z" fill="white"/>
<path d="M140.344 55.0693C139.48 55.0693 138.679 54.9099 137.94 54.591C137.202 54.2721 136.557 53.8116 136.008 53.2093C135.473 52.5893 135.049 51.8364 134.735 50.9507C134.436 50.0651 134.287 49.0464 134.287 47.895C134.287 46.7436 134.436 45.7249 134.735 44.8393C135.049 43.9536 135.473 43.2096 136.008 42.6073C136.557 41.9873 137.202 41.5267 137.94 41.2256C138.679 40.9067 139.48 40.7473 140.344 40.7473C141.208 40.7473 142.01 40.9067 142.748 41.2256C143.487 41.5267 144.131 41.9873 144.681 42.6073C145.231 43.2096 145.663 43.9536 145.977 44.8393C146.292 45.7249 146.449 46.7436 146.449 47.895C146.449 49.0464 146.292 50.0651 145.977 50.9507C145.663 51.8364 145.231 52.5893 144.681 53.2093C144.131 53.8116 143.487 54.2721 142.748 54.591C142.01 54.9099 141.208 55.0693 140.344 55.0693ZM140.344 52.4919C141.287 52.4919 142.065 52.1199 142.678 51.3759C143.306 50.6319 143.62 49.4715 143.62 47.895C143.62 46.3361 143.306 45.1847 142.678 44.4407C142.065 43.6789 141.287 43.2981 140.344 43.2981C139.417 43.2981 138.639 43.6789 138.011 44.4407C137.398 45.1847 137.092 46.3361 137.092 47.895C137.092 49.4715 137.398 50.6319 138.011 51.3759C138.639 52.1199 139.417 52.4919 140.344 52.4919Z" fill="white"/>
<path d="M154.252 39.3656C153.592 39.3656 153.017 39.2681 152.531 39.0733C152.06 38.8785 151.659 38.6128 151.329 38.2761C151.014 37.9219 150.778 37.5144 150.622 37.0538C150.464 36.5756 150.386 36.0707 150.386 35.5393H152.79C152.79 36.1592 152.916 36.6109 153.168 36.8944C153.434 37.1601 153.795 37.293 154.252 37.293C154.707 37.293 155.06 37.1601 155.312 36.8944C155.563 36.6109 155.689 36.1592 155.689 35.5393H158.117C158.117 36.0707 158.038 36.5756 157.881 37.0538C157.724 37.5144 157.481 37.9219 157.151 38.2761C156.836 38.6128 156.435 38.8785 155.949 39.0733C155.461 39.2681 154.896 39.3656 154.252 39.3656ZM151.447 50.6318L157.104 41.013H159.791V54.8036H157.08V45.2378L151.471 54.8036H148.737V41.013H151.447V50.6318Z" fill="white"/>
<path d="M168.336 43.5107V54.8036H165.602V43.5107H161.901V41.013H172.107V43.5107H168.336Z" fill="white"/>
<path d="M176.903 50.6319L182.56 41.013H185.247V54.8036H182.536V45.2379L176.927 54.8036H174.193V41.013H176.903V50.6319Z" fill="white"/>
<path d="M199.136 55.0693C198.147 55.0693 197.26 54.9099 196.473 54.591C195.688 54.2544 195.021 53.7851 194.47 53.1827C193.92 52.5628 193.496 51.8098 193.197 50.9241C192.899 50.0385 192.749 49.0288 192.749 47.895C192.749 46.779 192.899 45.7781 193.197 44.8924C193.496 44.0068 193.92 43.2628 194.47 42.6604C195.021 42.0405 195.695 41.571 196.497 41.2521C197.298 40.9155 198.194 40.7473 199.184 40.7473C200.032 40.7473 200.772 40.8536 201.399 41.0661C202.044 41.2787 202.554 41.5444 202.931 41.8633V44.4141C202.445 44.0599 201.91 43.7852 201.328 43.5904C200.763 43.3956 200.103 43.2981 199.349 43.2981C196.819 43.2981 195.554 44.8305 195.554 47.895C195.554 50.9595 196.796 52.4919 199.278 52.4919C200.079 52.4919 200.763 52.3944 201.328 52.1996C201.91 51.987 202.445 51.7213 202.931 51.4024V53.9533C202.523 54.2544 202.012 54.5201 201.399 54.7504C200.786 54.963 200.032 55.0693 199.136 55.0693Z" fill="white"/>
<path d="M210.793 41.7304C210.793 40.7207 210.951 39.8439 211.264 39.0999C211.58 38.3381 212.018 37.7181 212.584 37.2399C213.15 36.7438 213.826 36.3718 214.611 36.1239C215.412 35.8759 216.301 35.7519 217.274 35.7519H222.766V54.8036H219.891V47.4699H217.274L212.961 54.8036H209.638L214.399 46.9916C213.173 46.6549 212.263 46.0438 211.665 45.1581C211.085 44.2547 210.793 43.1121 210.793 41.7304ZM219.891 44.7861V38.5419H217.251C216.183 38.5419 215.327 38.781 214.682 39.2593C214.054 39.7198 213.739 40.5169 213.739 41.6507C213.739 42.7667 214.022 43.5727 214.588 44.0687C215.153 44.547 215.955 44.7861 216.992 44.7861H219.891Z" fill="white"/>
<path d="M233.991 48.9844H228.829V54.8036H226.095V41.013H228.829V46.4867H233.991V41.013H236.725V54.8036H233.991V48.9844Z" fill="white"/>
<path d="M239.46 52.3059C239.823 51.9516 240.106 51.4644 240.309 50.8444C240.53 50.2245 240.702 49.4539 240.827 48.5327C240.954 47.5939 241.048 46.5045 241.11 45.2644C241.174 44.0244 241.228 42.6073 241.275 41.013H250.232V52.3059H252.07V58.7361H249.689L249.477 54.8036H241.04L240.827 58.7361H238.423V52.3059H239.46ZM247.498 52.3059V43.5107H243.632C243.554 45.6896 243.42 47.4964 243.232 48.9313C243.059 50.3484 242.769 51.4733 242.359 52.3059H247.498Z" fill="white"/>
<path d="M264.083 53.7939C263.911 53.9179 263.698 54.0596 263.447 54.219C263.195 54.3607 262.897 54.4935 262.551 54.6176C262.205 54.7416 261.804 54.8479 261.349 54.9364C260.894 55.0249 260.375 55.0693 259.793 55.0693C257.547 55.0693 255.865 54.4404 254.749 53.1827C253.649 51.9251 253.1 50.1624 253.1 47.895C253.1 46.779 253.248 45.7781 253.547 44.8924C253.847 44.0068 254.262 43.2628 254.797 42.6604C255.331 42.0405 255.968 41.571 256.706 41.2521C257.444 40.9155 258.254 40.7473 259.133 40.7473C260.045 40.7473 260.861 40.9155 261.585 41.2521C262.323 41.5888 262.928 42.0936 263.399 42.7667C263.871 43.4398 264.193 44.2725 264.366 45.2644C264.554 46.2564 264.562 47.4167 264.389 48.7453H255.928C256.038 50.0029 256.407 50.9507 257.036 51.5884C257.665 52.2084 258.646 52.5184 259.982 52.5184C260.956 52.5184 261.766 52.3856 262.409 52.1199C263.069 51.8364 263.628 51.5441 264.083 51.243V53.7939ZM259.133 43.1919C258.332 43.1919 257.656 43.4664 257.106 44.0156C256.557 44.5648 256.195 45.3795 256.022 46.4601H261.773C261.804 45.3441 261.585 44.5204 261.113 43.989C260.642 43.4576 259.982 43.1919 259.133 43.1919Z" fill="white"/>
<path d="M270.722 49.197H269.661V54.8036H266.927V41.013H269.661V46.6993H270.816L274.705 41.013H277.581L272.961 47.6559L277.769 54.8036H274.54L270.722 49.197Z" fill="white"/>
<path d="M284.644 55.0693C283.654 55.0693 282.767 54.9099 281.981 54.591C281.196 54.2544 280.528 53.7851 279.977 53.1827C279.428 52.5628 279.004 51.8098 278.705 50.9241C278.407 50.0385 278.257 49.0288 278.257 47.895C278.257 46.779 278.407 45.7781 278.705 44.8924C279.004 44.0068 279.428 43.2628 279.977 42.6604C280.528 42.0405 281.203 41.571 282.004 41.2521C282.806 40.9155 283.701 40.7473 284.691 40.7473C285.54 40.7473 286.279 40.8536 286.907 41.0661C287.552 41.2787 288.062 41.5444 288.439 41.8633V44.4141C287.953 44.0599 287.418 43.7852 286.836 43.5904C286.27 43.3956 285.61 43.2981 284.856 43.2981C282.327 43.2981 281.062 44.8305 281.062 47.895C281.062 50.9595 282.303 52.4919 284.786 52.4919C285.587 52.4919 286.27 52.3944 286.836 52.1996C287.418 51.987 287.953 51.7213 288.439 51.4024V53.9533C288.031 54.2544 287.52 54.5201 286.907 54.7504C286.294 54.963 285.54 55.0693 284.644 55.0693Z" fill="white"/>
<path d="M299.27 35.7519V54.8036H296.418V35.7519H299.27Z" fill="white"/>
<path d="M302.887 35.7519H308.59C309.785 35.7519 310.893 35.9025 311.914 36.2036C312.951 36.5047 313.846 37.0007 314.601 37.6916C315.371 38.3824 315.968 39.2947 316.392 40.4284C316.832 41.5622 317.052 42.9615 317.052 44.6267C317.052 46.3095 316.832 47.7887 316.392 49.0641C315.968 50.3218 315.362 51.3759 314.577 52.2261C313.807 53.0764 312.887 53.723 311.819 54.1659C310.766 54.591 309.611 54.8036 308.355 54.8036H302.887V35.7519ZM305.739 38.5419V52.0401H308.449C309.281 52.0401 310.036 51.8985 310.712 51.615C311.403 51.3315 311.992 50.8976 312.479 50.313C312.982 49.7284 313.368 48.9844 313.634 48.081C313.917 47.1598 314.059 46.0704 314.059 44.8127C314.059 43.5727 313.924 42.5541 313.658 41.757C313.391 40.9421 313.014 40.2956 312.527 39.8173C312.055 39.339 311.489 39.0113 310.83 38.8341C310.17 38.6393 309.455 38.5419 308.685 38.5419H305.739Z" fill="white"/>
</g>
<defs>
<clipPath id="clip0_46_49">
<rect width="383" height="93" fill="white"/>
</clipPath>
</defs>
</svg>
